<svg xmlns="http://www.w3.org/2000/svg" xmlns:xlink="http://www.w3.org/1999/xlink" viewBox="0,0,256,256" width="50px" height="50px" fill-rule="nonzero"><g fill="#cdd6f4" fill-rule="nonzero" stroke="none" stroke-width="1" stroke-linecap="butt" stroke-linejoin="miter" stroke-miterlimit="10" stroke-dasharray="" stroke-dashoffset="0" font-family="none" font-weight="none" font-size="none" text-anchor="none" style="mix-blend-mode: normal"><g transform="scale(5.12,5.12)"><path d="M13.59961,4c-4.73754,0 -8.59961,3.86206 -8.59961,8.59961v18v0.80078v7c0,4.73754 3.86206,8.59961 8.59961,8.59961h22.80078c4.73754,0 8.59961,-3.86207 8.59961,-8.59961v-7v-0.80078v-18c0,-4.73754 -3.86207,-8.59961 -8.59961,-8.59961zM18.90234,14.08008h12.19531v1.7793h-5.10742v14.07422h-1.97852v-14.07422h-5.10937zM7,36.90234c1.57946,1.89041 3.95257,3.09766 6.59961,3.09766h22.80078c2.64704,0 5.02015,-1.20724 6.59961,-3.09766v1.49805c0,3.65646 -2.94315,6.59961 -6.59961,6.59961h-22.80078c-3.65645,0 -6.59961,-2.94315 -6.59961,-6.59961z"></path></g></g></svg>